<svg width="32" height="32" viewBox="0 0 32 32" fill="none" xmlns="http://www.w3.org/2000/svg">
<path d="M2 23.692V8.91135C1.99994 8.64385 2.07034 8.38106 2.20404 8.14938C2.33774 7.9177 2.53003 7.7253 2.76166 7.59155L15.5574 0.204117C15.789 0.0703951 16.0516 0 16.319 0C16.5864 0 16.8491 0.0703951 17.0807 0.204117L29.8765 7.59155C30.1081 7.7253 30.3004 7.9177 30.4341 8.14938C30.5678 8.38106 30.6382 8.64385 30.6381 8.91135V23.6881C30.6382 23.9556 30.5678 24.2185 30.4341 24.4501C30.3004 24.6818 30.1081 24.8742 29.8765 25.0079L18.0328 31.8469C17.8592 31.9472 17.6623 32 17.4618 32C17.2614 32.0001 17.0644 31.9473 16.8908 31.8472C16.7172 31.747 16.5729 31.603 16.4725 31.4294C16.3722 31.2559 16.3193 31.059 16.319 30.8585V25.4479C16.319 25.1804 16.3894 24.9176 16.5231 24.6859C16.6568 24.4542 16.8491 24.2618 17.0807 24.1281L22.7169 20.8734C22.9483 20.7398 23.1405 20.5477 23.2741 20.3164C23.4078 20.085 23.4783 19.8226 23.4786 19.5554V13.046C23.4786 12.7785 23.4083 12.5157 23.2746 12.284C23.1409 12.0523 22.9486 11.8599 22.7169 11.7262L17.0807 8.47141C16.8491 8.33769 16.5864 8.26729 16.319 8.26729C16.0516 8.26729 15.789 8.33769 15.5574 8.47141L9.91548 11.73C9.68386 11.8637 9.49152 12.0561 9.35782 12.2878C9.22412 12.5195 9.15377 12.7823 9.15383 13.0498V26.7277C9.15362 26.9282 9.10069 27.1251 9.00033 27.2986C8.89997 27.4722 8.75572 27.6163 8.58208 27.7164C8.40844 27.8166 8.21152 27.8692 8.01107 27.8692C7.81063 27.8691 7.61371 27.8163 7.44011 27.7161L2.75594 25.0118C2.52538 24.8773 2.3342 24.6846 2.20153 24.453C2.06886 24.2213 1.99936 23.9589 2 23.692Z" fill="#2E3234"/>
</svg>
