<svg width="28" height="28" viewBox="0 0 28 28" fill="none" xmlns="http://www.w3.org/2000/svg">
<path fill-rule="evenodd" clip-rule="evenodd" d="M8.21752 0.17182C5.93848 0.27465 3.96314 0.831844 2.36809 2.42015C0.767473 4.0168 0.217198 5.99997 0.114112 8.25529C0.050031 9.66296 -0.32468 20.2976 0.761902 23.0865C1.49465 24.968 2.93782 26.4147 4.83655 27.1498C5.72253 27.4944 6.73392 27.7276 8.21752 27.7957C20.6227 28.3571 25.2211 28.0515 27.1602 23.0865C27.5043 22.2027 27.7412 21.1922 27.8066 19.7123C28.3736 7.27537 27.7147 4.57959 25.5527 2.42015C23.8378 0.709554 21.8207 -0.454888 8.21752 0.17182ZM8.33172 25.2945C6.97349 25.2333 6.23658 25.007 5.74483 24.8167C4.5078 24.3359 3.57864 23.4105 3.10082 22.1807C2.27334 20.0616 2.54779 9.9967 2.62162 8.36808C2.69406 6.77281 3.01724 5.31485 4.14283 4.18929C5.53588 2.79968 7.33569 2.11865 19.5904 2.67171C21.1896 2.74397 22.6509 3.06649 23.7793 4.18929C25.1724 5.57888 25.8633 7.39253 25.3005 19.6002C25.2392 20.955 25.0122 21.6902 24.8213 22.1807C23.5606 25.4115 20.6602 25.86 8.33172 25.2945ZM19.7255 6.56545C19.7255 7.48537 20.4736 8.23341 21.3972 8.23341C22.3208 8.23341 23.0703 7.48537 23.0703 6.56545C23.0703 5.64554 22.3208 4.89817 21.3972 4.89817C20.4736 4.89817 19.7255 5.64554 19.7255 6.56545ZM6.80773 13.9831C6.80773 17.924 10.0104 21.1191 13.9611 21.1191C17.9118 21.1191 21.1144 17.924 21.1144 13.9831C21.1144 10.0422 17.9118 6.84914 13.9611 6.84914C10.0104 6.84914 6.80773 10.0422 6.80773 13.9831ZM9.31802 13.9831C9.31802 11.4262 11.3965 9.35177 13.9611 9.35177C16.5257 9.35177 18.6041 11.4262 18.6041 13.9831C18.6041 16.5414 16.5257 18.6165 13.9611 18.6165C11.3965 18.6165 9.31802 16.5414 9.31802 13.9831Z" fill="white"/>
</svg>
