<svg width="48" height="48" viewBox="0 0 48 48" fill="none" xmlns="http://www.w3.org/2000/svg">
<path d="M24 38C23.5667 38 23.2083 37.8583 22.925 37.575C22.6417 37.2917 22.5 36.9333 22.5 36.5V25.5H11.5C11.0667 25.5 10.7083 25.3583 10.425 25.075C10.1417 24.7917 10 24.4333 10 24C10 23.5667 10.1417 23.2083 10.425 22.925C10.7083 22.6417 11.0667 22.5 11.5 22.5H22.5V11.5C22.5 11.0667 22.6417 10.7083 22.925 10.425C23.2083 10.1417 23.5667 10 24 10C24.4333 10 24.7917 10.1417 25.075 10.425C25.3583 10.7083 25.5 11.0667 25.5 11.5V22.5H36.5C36.9333 22.5 37.2917 22.6417 37.575 22.925C37.8583 23.2083 38 23.5667 38 24C38 24.4333 37.8583 24.7917 37.575 25.075C37.2917 25.3583 36.9333 25.5 36.5 25.5H25.5V36.5C25.5 36.9333 25.3583 37.2917 25.075 37.575C24.7917 37.8583 24.4333 38 24 38Z" fill="#ACB3B8"/>
</svg>
